<svg width="985" height="285" viewBox="0 0 985 285" fill="none" xmlns="http://www.w3.org/2000/svg">
<path d="M960.326 229.575C966.459 229.575 973.646 228.521 979.068 227.239C979.616 227.108 979.999 226.618 979.999 226.055V205.213C979.999 204.413 979.24 203.825 978.464 204.037C975.467 204.854 972.021 205.565 968.003 205.565C957.974 205.565 954.234 202.224 954.234 194.156V152.849H978.399C979.068 152.849 979.607 152.31 979.607 151.64V127.696C979.607 127.026 979.068 126.487 978.399 126.487H954.234V91.6973C954.234 91.0276 953.695 90.4886 953.025 90.4886H923.96C923.29 90.4886 922.751 91.0276 922.751 91.6973V126.487H908.419C907.749 126.487 907.21 127.026 907.21 127.696V151.64C907.21 152.31 907.749 152.849 908.419 152.849H922.751V196.32C922.751 218.149 934.552 229.558 960.318 229.558M833.098 228.203H862.163C862.833 228.203 863.372 227.664 863.372 226.994V178.631C863.372 161.914 871.636 152.865 890.126 152.865H895.41C896.079 152.865 896.618 152.326 896.618 151.657V127.116C896.618 126.446 896.079 125.907 895.41 125.907H890.91C875.965 125.907 867.7 131.812 862.588 144.789L862.4 127.688C862.4 127.026 861.853 126.495 861.191 126.495H833.098C832.428 126.495 831.889 127.034 831.889 127.704V226.986C831.889 227.655 832.428 228.194 833.098 228.194V228.203ZM768.361 208.137C758.333 208.137 752.624 203.417 752.624 196.336C752.624 189.256 758.529 183.948 771.505 183.948C777.206 183.948 782.522 184.928 788.418 187.092V191.42C788.418 201.449 779.958 208.137 768.353 208.137M757.344 230.759C772.093 230.759 782.522 224.462 789.211 213.445L790.485 227.108C790.542 227.729 791.064 228.203 791.685 228.203H817.9C818.57 228.203 819.109 227.664 819.109 226.994V158.566C819.109 137.324 801.795 123.947 774.062 123.947C746.328 123.947 729.21 135.609 726.801 155.266C726.711 155.977 727.283 156.598 728.002 156.598H755.409C755.964 156.598 756.43 156.214 756.577 155.675C758.243 149.582 763.527 146.373 773.269 146.373C783.494 146.373 788.418 150.897 788.418 158.37V169.582C782.122 166.634 773.866 165.254 765.993 165.254C739.639 165.254 722.326 178.827 722.326 199.088C722.326 218.166 737.075 230.759 757.336 230.759M553.987 228.203H583.052C583.722 228.203 584.261 227.664 584.261 226.994V173.323C584.261 156.41 591.341 148.929 602.162 148.929C612.191 148.929 616.911 156.01 616.911 169.778V226.994C616.911 227.664 617.45 228.203 618.12 228.203H647.185C647.854 228.203 648.393 227.664 648.393 226.994V173.519C648.393 156.802 654.886 148.929 665.903 148.929C675.735 148.929 681.052 155.618 681.052 169.582V226.994C681.052 227.664 681.591 228.203 682.26 228.203H711.326C711.995 228.203 712.534 227.664 712.534 226.994V163.686C712.534 140.085 702.702 123.955 677.72 123.955C662.971 123.955 651.954 131.232 644.874 142.837C639.761 129.852 629.333 123.955 614.192 123.955C599.051 123.955 588.426 133.2 583.706 142.053L582.979 127.655C582.946 127.018 582.415 126.512 581.778 126.512H554.036C553.366 126.512 552.828 127.051 552.828 127.72V227.002C552.828 227.672 553.366 228.211 554.036 228.211L553.987 228.203ZM521.313 229.575C527.454 229.575 534.64 228.521 540.063 227.239C540.602 227.108 540.978 226.626 540.978 226.063V205.197C540.978 204.405 540.226 203.825 539.459 204.037C536.453 204.854 533.007 205.573 528.981 205.573C518.952 205.573 515.212 202.233 515.212 194.164V152.857H540.014C540.333 152.857 540.586 152.604 540.586 152.286V127.075C540.586 126.757 540.333 126.503 540.014 126.503H515.212V91.0848C515.212 90.7663 514.959 90.5131 514.64 90.5131H484.318C483.999 90.5131 483.746 90.7663 483.746 91.0848V126.503H468.785C468.466 126.503 468.213 126.757 468.213 127.075V152.286C468.213 152.604 468.466 152.857 468.785 152.857H483.746V196.328C483.746 218.158 495.547 229.566 521.313 229.566M412.533 205.385C398.764 205.385 391.096 195.356 391.096 177.259C391.096 159.162 398.764 149.329 412.533 149.329C426.302 149.329 433.97 159.358 433.97 177.259C433.97 195.16 426.302 205.385 412.533 205.385ZM412.533 230.759C444.595 230.759 465.837 209.125 465.837 178.239V176.271C465.837 145.589 444.595 123.947 412.533 123.947C380.471 123.947 359.229 145.581 359.229 176.271V178.239C359.229 209.117 380.275 230.759 412.533 230.759ZM251.275 228.203H280.34C281.009 228.203 281.548 227.664 281.548 226.994V172.335C281.548 157.39 289.217 149.125 300.626 149.125C312.622 149.125 316.951 157.186 316.951 170.954V226.986C316.951 227.655 317.49 228.194 318.159 228.194H347.224C347.894 228.194 348.433 227.655 348.433 226.986V162.886C348.433 140.264 338.796 123.939 313.031 123.939C296.902 123.939 286.873 132.204 281.753 140.852V91.7055C281.753 91.0358 281.214 90.4968 280.544 90.4968H251.283C250.613 90.4968 250.074 91.0358 250.074 91.7055V226.986C250.074 227.655 250.613 228.194 251.283 228.194L251.275 228.203Z" fill="#F5F3EF"/>
<path d="M100.886 230.84C72.0496 230.84 48.6523 206.912 48.6523 177.406C48.6523 147.9 72.0251 123.972 100.886 123.972C129.747 123.972 153.12 147.9 153.12 177.406C153.12 206.912 129.747 230.84 100.886 230.84ZM195.684 131.845C192.075 119.031 186.856 106.536 179.384 94.1882C179.384 94.1882 172.336 82.5181 169.38 78.9819C168.661 78.0673 167.191 79.0799 167.746 80.1171C168.587 81.8566 169.339 83.9799 168.808 86.0869C167.942 88.6267 165.108 90.4152 162.487 89.4924C161.793 89.1984 161.139 88.79 160.56 88.1857C157.865 85.4091 156.493 80.8357 154.737 75.0129C153.169 69.8435 151.25 63.3918 147.738 56.4257C142.062 45.1149 135.325 39.8719 135.063 39.6514C134.729 39.3901 134.247 39.3901 133.887 39.6514C133.528 39.9209 133.381 40.3538 133.528 40.7866C133.553 40.8846 136.386 50.2109 130.931 57.2669C128.767 60.0925 125.451 61.783 121.597 62.028C117.726 62.2648 113.904 60.9908 111.592 58.696C105.892 52.9712 105.222 42.8201 105.337 37.2831C105.696 18.8184 111.274 5.89059 114.189 1.61128C114.451 1.25195 114.434 0.745614 114.14 0.378116C113.855 0.0351174 113.397 -0.103715 112.989 0.0841172C90.4082 9.90041 74.0505 26.6175 65.7123 48.4469C61.0002 61.4237 58.9585 67.3445 57.2925 71.0685C55.7572 74.4739 54.3362 76.0501 52.8907 76.9158C52.0986 77.3976 51.1104 77.6671 50.1222 77.7161C48.6523 77.5691 41.3676 76.2216 47.7131 64.037C48.2439 63.0243 46.8474 61.9872 46.0798 62.8283L41.0736 68.3408C40.8531 68.5858 40.6163 68.8226 40.3958 69.0676L39.5546 69.9905C39.4076 70.162 39.2933 70.3008 39.1708 70.4723C23.3929 88.5042 12.3598 111.559 6.00611 132.898C0.322139 153.429 -0.0453586 169.787 0.00364121 176.026V177.406C0.00364121 204.977 10.4896 230.881 29.5587 250.391C48.6033 269.869 73.9525 280.624 100.886 280.624C127.82 280.624 153.169 269.893 172.213 250.391C191.258 230.889 201.768 204.977 201.768 177.398C201.768 159.823 199.506 145.524 195.684 131.836" fill="#FF4000"/>
</svg>
